<svg width="150" height="113" viewBox="0 0 150 113" fill="none" xmlns="http://www.w3.org/2000/svg">
<path d="M1.58981 102L10.4458 78.816H15.7738L24.5938 102H19.5538L17.3578 96.42H8.82581L6.66581 102H1.58981ZM9.54581 92.676H16.6378L13.0738 83.352L9.54581 92.676ZM36.5447 102.36C33.3527 102.36 30.8207 101.592 28.9487 100.056C27.1007 98.496 26.1767 96.24 26.1767 93.288V78.816H31.0367V92.928C31.0367 94.704 31.5167 96.036 32.4767 96.924C33.4367 97.788 34.7927 98.22 36.5447 98.22C38.2967 98.22 39.6407 97.788 40.5767 96.924C41.5367 96.036 42.0167 94.704 42.0167 92.928V78.816H46.8767V93.288C46.8767 96.24 45.9527 98.496 44.1047 100.056C42.2567 101.592 39.7367 102.36 36.5447 102.36ZM56.4783 102V82.56H49.3503V78.816H68.4303V82.56H61.3383V102H56.4783ZM80.9555 102.36C73.4435 102.36 69.6875 98.412 69.6875 90.516C69.6875 86.268 70.6355 83.196 72.5315 81.3C74.4275 79.404 77.2355 78.456 80.9555 78.456C84.6755 78.456 87.4835 79.404 89.3795 81.3C91.2755 83.196 92.2235 86.268 92.2235 90.516C92.2235 98.412 88.4675 102.36 80.9555 102.36ZM80.9555 98.22C83.1395 98.22 84.7355 97.596 85.7435 96.348C86.7755 95.076 87.2915 93.132 87.2915 90.516C87.2915 87.612 86.7755 85.572 85.7435 84.396C84.7355 83.196 83.1395 82.596 80.9555 82.596C78.7715 82.596 77.1635 83.196 76.1315 84.396C75.1235 85.572 74.6195 87.612 74.6195 90.516C74.6195 93.132 75.1235 95.076 76.1315 96.348C77.1635 97.596 78.7715 98.22 80.9555 98.22ZM103.525 102V78.816H119.833V82.596H108.385V88.536H118.501V92.28H108.385V102H103.525ZM122.509 102V78.816H127.369V102H122.509ZM137.162 102V82.56H130.034V78.816H149.114V82.56H142.022V102H137.162Z" fill="white"/>
<path d="M26.0195 52.9024V13.0976C26.0195 10.8345 24.1849 9 21.9219 9C19.6589 9 17.8243 10.8345 17.8243 13.0976V52.9024C17.8243 55.1655 19.6589 57 21.9219 57C24.1849 57 26.0195 55.1655 26.0195 52.9024Z" fill="white"/>
<path d="M38.3122 52.9024V13.0976C38.3122 10.8345 36.4776 9 34.2146 9C31.9516 9 30.1171 10.8345 30.1171 13.0976V52.9024C30.1171 55.1655 31.9516 57 34.2146 57C36.4776 57 38.3122 55.1655 38.3122 52.9024Z" fill="white"/>
<path d="M14.1951 42.1317V23.9268C14.1951 21.6638 12.3606 19.8293 10.0976 19.8293C7.83454 19.8293 6 21.6638 6 23.9268V42.1317C6 44.3947 7.83454 46.2293 10.0976 46.2293C12.3606 46.2293 14.1951 44.3947 14.1951 42.1317Z" fill="white"/>
<path d="M121.376 52.9024V13.0976C121.376 10.8345 119.541 9 117.278 9C115.015 9 113.18 10.8345 113.18 13.0976V52.9024C113.18 55.1655 115.015 57 117.278 57C119.541 57 121.376 55.1655 121.376 52.9024Z" fill="white"/>
<path d="M133.668 52.9024V13.0976C133.668 10.8345 131.834 9 129.571 9C127.308 9 125.473 10.8345 125.473 13.0976V52.9024C125.473 55.1655 127.308 57 129.571 57C131.834 57 133.668 55.1655 133.668 52.9024Z" fill="white"/>
<path d="M145.024 42.1317V23.9268C145.024 21.6638 143.19 19.8293 140.927 19.8293C138.664 19.8293 136.829 21.6638 136.829 23.9268V42.1317C136.829 44.3947 138.664 46.2293 140.927 46.2293C143.19 46.2293 145.024 44.3947 145.024 42.1317Z" fill="white"/>
<path d="M58.7999 38.5024H55.8146C52.8292 38.5024 50.4292 36.1024 50.4292 33.1171V31.0097C50.4292 28.0244 52.8292 25.6244 55.8146 25.6244H58.7999C61.7853 25.6244 64.1853 28.0244 64.1853 31.0097V33.1171C64.1853 36.1024 61.7853 38.5024 58.7999 38.5024Z" fill="white"/>
<path d="M95.678 38.5024H92.6926C89.7073 38.5024 87.3073 36.1024 87.3073 33.1171V31.0097C87.3073 28.0244 89.7073 25.6244 92.6926 25.6244H95.678C98.6633 25.6244 101.063 28.0244 101.063 31.0097V33.1171C101.063 36.1024 98.6048 38.5024 95.678 38.5024Z" fill="white"/>
</svg>
