<svg width="184" height="113" viewBox="0 0 184 113" fill="none" xmlns="http://www.w3.org/2000/svg">
<path d="M18.5898 102L27.4458 78.816H32.7738L41.5938 102H36.5538L34.3578 96.42H25.8258L23.6658 102H18.5898ZM26.5458 92.676H33.6378L30.0738 83.352L26.5458 92.676ZM53.5447 102.36C50.3527 102.36 47.8207 101.592 45.9487 100.056C44.1007 98.496 43.1767 96.24 43.1767 93.288V78.816H48.0367V92.928C48.0367 94.704 48.5167 96.036 49.4767 96.924C50.4367 97.788 51.7927 98.22 53.5447 98.22C55.2967 98.22 56.6407 97.788 57.5767 96.924C58.5367 96.036 59.0167 94.704 59.0167 92.928V78.816H63.8767V93.288C63.8767 96.24 62.9527 98.496 61.1047 100.056C59.2567 101.592 56.7367 102.36 53.5447 102.36ZM73.4783 102V82.56H66.3503V78.816H85.4303V82.56H78.3383V102H73.4783ZM97.9555 102.36C90.4435 102.36 86.6875 98.412 86.6875 90.516C86.6875 86.268 87.6355 83.196 89.5315 81.3C91.4275 79.404 94.2355 78.456 97.9555 78.456C101.675 78.456 104.483 79.404 106.379 81.3C108.275 83.196 109.223 86.268 109.223 90.516C109.223 98.412 105.467 102.36 97.9555 102.36ZM97.9555 98.22C100.139 98.22 101.735 97.596 102.743 96.348C103.775 95.076 104.291 93.132 104.291 90.516C104.291 87.612 103.775 85.572 102.743 84.396C101.735 83.196 100.139 82.596 97.9555 82.596C95.7715 82.596 94.1635 83.196 93.1315 84.396C92.1235 85.572 91.6195 87.612 91.6195 90.516C91.6195 93.132 92.1235 95.076 93.1315 96.348C94.1635 97.596 95.7715 98.22 97.9555 98.22ZM120.525 102V78.816H136.833V82.596H125.385V88.536H135.501V92.28H125.385V102H120.525ZM139.509 102V78.816H144.369V102H139.509ZM154.162 102V82.56H147.034V78.816H166.114V82.56H159.022V102H154.162Z" fill="white"/>
<path d="M43.0195 52.9024V13.0976C43.0195 10.8345 41.1849 9 38.9219 9C36.6589 9 34.8243 10.8345 34.8243 13.0976V52.9024C34.8243 55.1655 36.6589 57 38.9219 57C41.1849 57 43.0195 55.1655 43.0195 52.9024Z" fill="white"/>
<path d="M55.3122 52.9024V13.0976C55.3122 10.8345 53.4776 9 51.2146 9C48.9516 9 47.1171 10.8345 47.1171 13.0976V52.9024C47.1171 55.1655 48.9516 57 51.2146 57C53.4776 57 55.3122 55.1655 55.3122 52.9024Z" fill="white"/>
<path d="M31.1951 42.1317V23.9268C31.1951 21.6638 29.3606 19.8293 27.0976 19.8293C24.8345 19.8293 23 21.6638 23 23.9268V42.1317C23 44.3947 24.8345 46.2293 27.0976 46.2293C29.3606 46.2293 31.1951 44.3947 31.1951 42.1317Z" fill="white"/>
<path d="M138.376 52.9024V13.0976C138.376 10.8345 136.541 9 134.278 9C132.015 9 130.18 10.8345 130.18 13.0976V52.9024C130.18 55.1655 132.015 57 134.278 57C136.541 57 138.376 55.1655 138.376 52.9024Z" fill="white"/>
<path d="M150.668 52.9024V13.0976C150.668 10.8345 148.834 9 146.571 9C144.308 9 142.473 10.8345 142.473 13.0976V52.9024C142.473 55.1655 144.308 57 146.571 57C148.834 57 150.668 55.1655 150.668 52.9024Z" fill="white"/>
<path d="M162.024 42.1317V23.9268C162.024 21.6638 160.19 19.8293 157.927 19.8293C155.664 19.8293 153.829 21.6638 153.829 23.9268V42.1317C153.829 44.3947 155.664 46.2293 157.927 46.2293C160.19 46.2293 162.024 44.3947 162.024 42.1317Z" fill="white"/>
<path d="M75.7999 38.5024H72.8146C69.8292 38.5024 67.4292 36.1024 67.4292 33.1171V31.0097C67.4292 28.0244 69.8292 25.6244 72.8146 25.6244H75.7999C78.7853 25.6244 81.1853 28.0244 81.1853 31.0097V33.1171C81.1853 36.1024 78.7853 38.5024 75.7999 38.5024Z" fill="white"/>
<path d="M112.678 38.5024H109.693C106.707 38.5024 104.307 36.1024 104.307 33.1171V31.0097C104.307 28.0244 106.707 25.6244 109.693 25.6244H112.678C115.663 25.6244 118.063 28.0244 118.063 31.0097V33.1171C118.063 36.1024 115.605 38.5024 112.678 38.5024Z" fill="white"/>
</svg>
