<svg width="184" height="113" viewBox="0 0 184 113" fill="none" xmlns="http://www.w3.org/2000/svg">
<path d="M1.57419 102L10.4302 78.816H15.7582L24.5782 102H19.5382L17.3422 96.42H8.81019L6.65019 102H1.57419ZM9.53019 92.676H16.6222L13.0582 83.352L9.53019 92.676ZM36.5291 102.36C33.3371 102.36 30.8051 101.592 28.9331 100.056C27.0851 98.496 26.1611 96.24 26.1611 93.288V78.816H31.0211V92.928C31.0211 94.704 31.5011 96.036 32.4611 96.924C33.4211 97.788 34.7771 98.22 36.5291 98.22C38.2811 98.22 39.6251 97.788 40.5611 96.924C41.5211 96.036 42.0011 94.704 42.0011 92.928V78.816H46.8611V93.288C46.8611 96.24 45.9371 98.496 44.0891 100.056C42.2411 101.592 39.7211 102.36 36.5291 102.36ZM56.4627 102V82.56H49.3347V78.816H68.4147V82.56H61.3227V102H56.4627ZM80.9398 102.36C73.4278 102.36 69.6718 98.412 69.6718 90.516C69.6718 86.268 70.6198 83.196 72.5158 81.3C74.4118 79.404 77.2198 78.456 80.9398 78.456C84.6598 78.456 87.4678 79.404 89.3638 81.3C91.2598 83.196 92.2078 86.268 92.2078 90.516C92.2078 98.412 88.4518 102.36 80.9398 102.36ZM80.9398 98.22C83.1238 98.22 84.7198 97.596 85.7278 96.348C86.7598 95.076 87.2758 93.132 87.2758 90.516C87.2758 87.612 86.7598 85.572 85.7278 84.396C84.7198 83.196 83.1238 82.596 80.9398 82.596C78.7558 82.596 77.1478 83.196 76.1158 84.396C75.1078 85.572 74.6038 87.612 74.6038 90.516C74.6038 93.132 75.1078 95.076 76.1158 96.348C77.1478 97.596 78.7558 98.22 80.9398 98.22ZM103.509 102V78.816H119.817V82.596H108.369V88.536H118.485V92.28H108.369V102H103.509ZM122.493 102V78.816H127.353V98.256H138.765V102H122.493ZM141.443 102V78.816H158.075V82.596H146.303V88.536H156.743V92.28H146.303V98.256H158.075V102H141.443ZM159.812 102L168.2 90.372L160.028 78.816H165.752L171.116 86.556L176.48 78.816H182.204L174.032 90.372L182.42 102H176.624L171.116 94.26L165.608 102H159.812Z" fill="white"/>
<path d="M43.0195 52.9024V13.0976C43.0195 10.8345 41.1849 9 38.9219 9C36.6589 9 34.8243 10.8345 34.8243 13.0976V52.9024C34.8243 55.1655 36.6589 57 38.9219 57C41.1849 57 43.0195 55.1655 43.0195 52.9024Z" fill="white"/>
<path d="M55.3122 52.9024V13.0976C55.3122 10.8345 53.4776 9 51.2146 9C48.9516 9 47.1171 10.8345 47.1171 13.0976V52.9024C47.1171 55.1655 48.9516 57 51.2146 57C53.4776 57 55.3122 55.1655 55.3122 52.9024Z" fill="white"/>
<path d="M31.1951 42.1317V23.9268C31.1951 21.6638 29.3606 19.8293 27.0976 19.8293C24.8345 19.8293 23 21.6638 23 23.9268V42.1317C23 44.3947 24.8345 46.2293 27.0976 46.2293C29.3606 46.2293 31.1951 44.3947 31.1951 42.1317Z" fill="white"/>
<path d="M138.376 52.9024V13.0976C138.376 10.8345 136.541 9 134.278 9C132.015 9 130.18 10.8345 130.18 13.0976V52.9024C130.18 55.1655 132.015 57 134.278 57C136.541 57 138.376 55.1655 138.376 52.9024Z" fill="white"/>
<path d="M150.668 52.9024V13.0976C150.668 10.8345 148.834 9 146.571 9C144.308 9 142.473 10.8345 142.473 13.0976V52.9024C142.473 55.1655 144.308 57 146.571 57C148.834 57 150.668 55.1655 150.668 52.9024Z" fill="white"/>
<path d="M162.024 42.1317V23.9268C162.024 21.6638 160.19 19.8293 157.927 19.8293C155.664 19.8293 153.829 21.6638 153.829 23.9268V42.1317C153.829 44.3947 155.664 46.2293 157.927 46.2293C160.19 46.2293 162.024 44.3947 162.024 42.1317Z" fill="white"/>
<path d="M75.7999 38.5024H72.8146C69.8292 38.5024 67.4292 36.1024 67.4292 33.1171V31.0097C67.4292 28.0244 69.8292 25.6244 72.8146 25.6244H75.7999C78.7853 25.6244 81.1853 28.0244 81.1853 31.0097V33.1171C81.1853 36.1024 78.7853 38.5024 75.7999 38.5024Z" fill="white"/>
<path d="M112.678 38.5024H109.693C106.707 38.5024 104.307 36.1024 104.307 33.1171V31.0097C104.307 28.0244 106.707 25.6244 109.693 25.6244H112.678C115.663 25.6244 118.063 28.0244 118.063 31.0097V33.1171C118.063 36.1024 115.605 38.5024 112.678 38.5024Z" fill="white"/>
</svg>
